<?xml version="1.0" encoding="UTF-8" standalone="no"?>
<svg
   xmlns:dc="http://purl.org/dc/elements/1.1/"
   xmlns:cc="http://creativecommons.org/ns#"
   xmlns:rdf="http://www.w3.org/1999/02/22-rdf-syntax-ns#"
   xmlns:svg="http://www.w3.org/2000/svg"
   xmlns="http://www.w3.org/2000/svg"
   xmlns:sodipodi="http://sodipodi.sourceforge.net/DTD/sodipodi-0.dtd"
   xmlns:inkscape="http://www.inkscape.org/namespaces/inkscape"
   style="fill-opacity:1; color-rendering:auto; color-interpolation:auto; text-rendering:auto; stroke:black; stroke-linecap:square; stroke-miterlimit:10; shape-rendering:auto; stroke-opacity:1; fill:black; stroke-dasharray:none; font-weight:normal; stroke-width:1; font-family:'Dialog'; font-style:normal; stroke-linejoin:miter; font-size:12px; stroke-dashoffset:0; image-rendering:auto;"
   width="1135"
   height="738"
   version="1.1"
   id="svg20550"
   sodipodi:docname="Chi_theta0_flyby.svg"
   inkscape:version="1.0.1 (3bc2e813f5, 2020-09-07)"
   inkscape:export-filename="\\titania.unibe.ch\UserHomes\foehn\My Documents\PhD\Latex\Bilder\Chi_theta0_flyby.png"
   inkscape:export-xdpi="200"
   inkscape:export-ydpi="200">
  <metadata
     id="metadata20554">
    <rdf:RDF>
      <cc:Work
         rdf:about="">
        <dc:format>image/svg+xml</dc:format>
        <dc:type
           rdf:resource="http://purl.org/dc/dcmitype/StillImage" />
      </cc:Work>
    </rdf:RDF>
  </metadata>
  <sodipodi:namedview
     pagecolor="#ffffff"
     bordercolor="#666666"
     borderopacity="1"
     objecttolerance="10"
     gridtolerance="10"
     guidetolerance="10"
     inkscape:pageopacity="0"
     inkscape:pageshadow="2"
     inkscape:window-width="2560"
     inkscape:window-height="1346"
     id="namedview20552"
     showgrid="false"
     inkscape:zoom="1"
     inkscape:cx="694.71849"
     inkscape:cy="314.52245"
     inkscape:window-x="-11"
     inkscape:window-y="-11"
     inkscape:window-maximized="1"
     inkscape:current-layer="g20548" />
  <!--Generated by the Batik Graphics2D SVG Generator-->
  <defs
     id="genericDefs" />
  <g
     id="g20548">
    <defs
       id="defs1">
      <clipPath
         clipPathUnits="userSpaceOnUse"
         id="clipPath1">
        <path
           d="M0 0 L1135 0 L1135 738 L0 738 L0 0 Z"
           id="path20358" />
      </clipPath>
    </defs>
    <g
       style="fill:white; stroke:white;"
       id="g20364">
      <rect
         x="0"
         y="0"
         width="1135"
         style="clip-path:url(#clipPath1); stroke:none;"
         height="738"
         clip-path="url(#clipPath1)"
         id="rect20362" />
    </g>
    <g
       style="fill:white; text-rendering:optimizeSpeed; color-rendering:optimizeSpeed; image-rendering:optimizeSpeed; shape-rendering:crispEdges; stroke:white; color-interpolation:sRGB;"
       id="g20370">
      <rect
         x="0"
         width="1135"
         height="738"
         y="0"
         style="stroke:none;"
         id="rect20366" />
      <path
         style="stroke:none;"
         d="M148 652 L1027 652 L1027 55 L148 55 Z"
         id="path20368" />
    </g>
    <g
       style="fill:rgb(38,38,38); text-rendering:geometricPrecision; image-rendering:optimizeQuality; color-rendering:optimizeQuality; stroke-linejoin:round; stroke:rgb(38,38,38); color-interpolation:linearRGB; stroke-width:2;"
       id="g20420">
      <line
         y2="652"
         style="fill:none;"
         x1="148"
         x2="1027"
         y1="652"
         id="line20372" />
      <line
         y2="55"
         style="fill:none;"
         x1="148"
         x2="1027"
         y1="55"
         id="line20374" />
      <line
         y2="643.21"
         style="fill:none;"
         x1="148"
         x2="148"
         y1="652"
         id="line20376" />
      <line
         y2="643.21"
         style="fill:none;"
         x1="235.9"
         x2="235.9"
         y1="652"
         id="line20378" />
      <line
         y2="643.21"
         style="fill:none;"
         x1="323.8"
         x2="323.8"
         y1="652"
         id="line20380" />
      <line
         y2="643.21"
         style="fill:none;"
         x1="411.7"
         x2="411.7"
         y1="652"
         id="line20382" />
      <line
         y2="643.21"
         style="fill:none;"
         x1="499.6"
         x2="499.6"
         y1="652"
         id="line20384" />
      <line
         y2="643.21"
         style="fill:none;"
         x1="587.5"
         x2="587.5"
         y1="652"
         id="line20386" />
      <line
         y2="643.21"
         style="fill:none;"
         x1="675.4"
         x2="675.4"
         y1="652"
         id="line20388" />
      <line
         y2="643.21"
         style="fill:none;"
         x1="763.3"
         x2="763.3"
         y1="652"
         id="line20390" />
      <line
         y2="643.21"
         style="fill:none;"
         x1="851.2"
         x2="851.2"
         y1="652"
         id="line20392" />
      <line
         y2="643.21"
         style="fill:none;"
         x1="939.1"
         x2="939.1"
         y1="652"
         id="line20394" />
      <line
         y2="643.21"
         style="fill:none;"
         x1="1027"
         x2="1027"
         y1="652"
         id="line20396" />
      <line
         y2="63.79"
         style="fill:none;"
         x1="148"
         x2="148"
         y1="55"
         id="line20398" />
      <line
         y2="63.79"
         style="fill:none;"
         x1="235.9"
         x2="235.9"
         y1="55"
         id="line20400" />
      <line
         y2="63.79"
         style="fill:none;"
         x1="323.8"
         x2="323.8"
         y1="55"
         id="line20402" />
      <line
         y2="63.79"
         style="fill:none;"
         x1="411.7"
         x2="411.7"
         y1="55"
         id="line20404" />
      <line
         y2="63.79"
         style="fill:none;"
         x1="499.6"
         x2="499.6"
         y1="55"
         id="line20406" />
      <line
         y2="63.79"
         style="fill:none;"
         x1="587.5"
         x2="587.5"
         y1="55"
         id="line20408" />
      <line
         y2="63.79"
         style="fill:none;"
         x1="675.4"
         x2="675.4"
         y1="55"
         id="line20410" />
      <line
         y2="63.79"
         style="fill:none;"
         x1="763.3"
         x2="763.3"
         y1="55"
         id="line20412" />
      <line
         y2="63.79"
         style="fill:none;"
         x1="851.2"
         x2="851.2"
         y1="55"
         id="line20414" />
      <line
         y2="63.79"
         style="fill:none;"
         x1="939.1"
         x2="939.1"
         y1="55"
         id="line20416" />
      <line
         y2="63.79"
         style="fill:none;"
         x1="1027"
         x2="1027"
         y1="55"
         id="line20418" />
    </g>
    <g
       transform="translate(148,661.6)"
       style="font-size:28px; fill:rgb(38,38,38); text-rendering:geometricPrecision; image-rendering:optimizeQuality; color-rendering:optimizeQuality; font-family:'SansSerif'; stroke:rgb(38,38,38); color-interpolation:linearRGB;"
       id="g20424">
      <path
         style="stroke:none;"
         d="M-27.6094 22.9844 L-27.6094 20.5156 L-20.0469 20.5156 L-20.0469 22.9844 L-27.6094 22.9844 ZM-8.7383 29 L-11.207 29 L-11.207 13.3125 Q-12.0977 14.1719 -13.5352 15.0156 Q-14.9727 15.8594 -16.1289 16.2812 L-16.1289 13.9062 Q-14.0664 12.9375 -12.5195 11.5547 Q-10.9727 10.1719 -10.332 8.875 L-8.7383 8.875 L-8.7383 29 ZM-2.4473 23.75 L0.1465 23.5312 Q0.4277 25.4219 1.4746 26.3672 Q2.5215 27.3125 4.0059 27.3125 Q5.7715 27.3125 7.0059 25.9766 Q8.2402 24.6406 8.2402 22.4219 Q8.2402 20.3125 7.0527 19.1016 Q5.8652 17.8906 3.959 17.8906 Q2.7715 17.8906 1.8105 18.4297 Q0.8496 18.9688 0.3027 19.8281 L-2.0098 19.5312 L-0.0566 9.2344 L9.9121 9.2344 L9.9121 11.5781 L1.9121 11.5781 L0.834 16.9688 Q2.6309 15.7031 4.6152 15.7031 Q7.2402 15.7031 9.0449 17.5234 Q10.8496 19.3438 10.8496 22.2031 Q10.8496 24.9219 9.2559 26.9062 Q7.334 29.3438 4.0059 29.3438 Q1.2715 29.3438 -0.4629 27.8125 Q-2.1973 26.2812 -2.4473 23.75 ZM13.125 19.1094 Q13.125 15.5625 13.8594 13.3906 Q14.5938 11.2188 16.0391 10.0469 Q17.4844 8.875 19.6719 8.875 Q21.2812 8.875 22.5 9.5234 Q23.7188 10.1719 24.5078 11.3984 Q25.2969 12.625 25.75 14.3828 Q26.2031 16.1406 26.2031 19.1094 Q26.2031 22.6406 25.4766 24.8047 Q24.75 26.9688 23.3125 28.1562 Q21.875 29.3438 19.6719 29.3438 Q16.7656 29.3438 15.1094 27.2656 Q13.125 24.7656 13.125 19.1094 ZM15.6562 19.1094 Q15.6562 24.0469 16.8125 25.6797 Q17.9688 27.3125 19.6719 27.3125 Q21.3594 27.3125 22.5156 25.6719 Q23.6719 24.0312 23.6719 19.1094 Q23.6719 14.1719 22.5156 12.5391 Q21.3594 10.9062 19.6406 10.9062 Q17.9375 10.9062 16.9375 12.3438 Q15.6562 14.1719 15.6562 19.1094 Z"
         id="path20422" />
    </g>
    <g
       transform="translate(235.9,661.6)"
       style="font-size:28px; fill:rgb(38,38,38); text-rendering:geometricPrecision; image-rendering:optimizeQuality; color-rendering:optimizeQuality; font-family:'SansSerif'; stroke:rgb(38,38,38); color-interpolation:linearRGB;"
       id="g20428">
      <path
         style="stroke:none;"
         d="M-27.6094 22.9844 L-27.6094 20.5156 L-20.0469 20.5156 L-20.0469 22.9844 L-27.6094 22.9844 ZM-8.7383 29 L-11.207 29 L-11.207 13.3125 Q-12.0977 14.1719 -13.5352 15.0156 Q-14.9727 15.8594 -16.1289 16.2812 L-16.1289 13.9062 Q-14.0664 12.9375 -12.5195 11.5547 Q-10.9727 10.1719 -10.332 8.875 L-8.7383 8.875 L-8.7383 29 ZM10.4902 26.6406 L10.4902 29 L-2.7598 29 Q-2.7754 28.1094 -2.4629 27.2969 Q-1.9629 25.9375 -0.8457 24.625 Q0.2715 23.3125 2.3652 21.5938 Q5.6465 18.9062 6.7949 17.3438 Q7.9434 15.7812 7.9434 14.3906 Q7.9434 12.9219 6.8965 11.9141 Q5.8496 10.9062 4.1621 10.9062 Q2.3809 10.9062 1.3184 11.9766 Q0.2559 13.0469 0.2402 14.9375 L-2.291 14.6719 Q-2.0254 11.8438 -0.3301 10.3594 Q1.3652 8.875 4.2246 8.875 Q7.0996 8.875 8.7793 10.4766 Q10.459 12.0781 10.459 14.4375 Q10.459 15.6406 9.9668 16.8047 Q9.4746 17.9688 8.334 19.25 Q7.1934 20.5312 4.5527 22.7812 Q2.334 24.6406 1.7012 25.3047 Q1.0684 25.9688 0.6621 26.6406 L10.4902 26.6406 ZM13.125 19.1094 Q13.125 15.5625 13.8594 13.3906 Q14.5938 11.2188 16.0391 10.0469 Q17.4844 8.875 19.6719 8.875 Q21.2812 8.875 22.5 9.5234 Q23.7188 10.1719 24.5078 11.3984 Q25.2969 12.625 25.75 14.3828 Q26.2031 16.1406 26.2031 19.1094 Q26.2031 22.6406 25.4766 24.8047 Q24.75 26.9688 23.3125 28.1562 Q21.875 29.3438 19.6719 29.3438 Q16.7656 29.3438 15.1094 27.2656 Q13.125 24.7656 13.125 19.1094 ZM15.6562 19.1094 Q15.6562 24.0469 16.8125 25.6797 Q17.9688 27.3125 19.6719 27.3125 Q21.3594 27.3125 22.5156 25.6719 Q23.6719 24.0312 23.6719 19.1094 Q23.6719 14.1719 22.5156 12.5391 Q21.3594 10.9062 19.6406 10.9062 Q17.9375 10.9062 16.9375 12.3438 Q15.6562 14.1719 15.6562 19.1094 Z"
         id="path20426" />
    </g>
    <g
       transform="translate(323.8,661.6)"
       style="font-size:28px; fill:rgb(38,38,38); text-rendering:geometricPrecision; image-rendering:optimizeQuality; color-rendering:optimizeQuality; font-family:'SansSerif'; stroke:rgb(38,38,38); color-interpolation:linearRGB;"
       id="g20432">
      <path
         style="stroke:none;"
         d="M-19.6094 22.9844 L-19.6094 20.5156 L-12.0469 20.5156 L-12.0469 22.9844 L-19.6094 22.9844 ZM-9.6445 24.3594 L-7.2852 24.1406 Q-6.9727 25.8125 -6.1289 26.5625 Q-5.2852 27.3125 -3.957 27.3125 Q-2.8164 27.3125 -1.9648 26.7969 Q-1.1133 26.2812 -0.5664 25.4141 Q-0.0195 24.5469 0.3477 23.0703 Q0.7148 21.5938 0.7148 20.0625 Q0.7148 19.8906 0.6992 19.5625 Q-0.0352 20.7344 -1.3086 21.4688 Q-2.582 22.2031 -4.082 22.2031 Q-6.5664 22.2031 -8.293 20.3984 Q-10.0195 18.5938 -10.0195 15.6406 Q-10.0195 12.5938 -8.2148 10.7344 Q-6.4102 8.875 -3.707 8.875 Q-1.7539 8.875 -0.1367 9.9297 Q1.4805 10.9844 2.3242 12.9297 Q3.168 14.875 3.168 18.5625 Q3.168 22.4062 2.332 24.6875 Q1.4961 26.9688 -0.1523 28.1562 Q-1.8008 29.3438 -4.0039 29.3438 Q-6.3633 29.3438 -7.8555 28.0391 Q-9.3477 26.7344 -9.6445 24.3594 ZM0.4336 15.5156 Q0.4336 13.4062 -0.6914 12.1562 Q-1.8164 10.9062 -3.4102 10.9062 Q-5.0508 10.9062 -6.2695 12.25 Q-7.4883 13.5938 -7.4883 15.7188 Q-7.4883 17.6406 -6.332 18.8359 Q-5.1758 20.0312 -3.4727 20.0312 Q-1.7695 20.0312 -0.668 18.8359 Q0.4336 17.6406 0.4336 15.5156 ZM5.5527 19.1094 Q5.5527 15.5625 6.2871 13.3906 Q7.0215 11.2188 8.4668 10.0469 Q9.9121 8.875 12.0996 8.875 Q13.709 8.875 14.9277 9.5234 Q16.1465 10.1719 16.9355 11.3984 Q17.7246 12.625 18.1777 14.3828 Q18.6309 16.1406 18.6309 19.1094 Q18.6309 22.6406 17.9043 24.8047 Q17.1777 26.9688 15.7402 28.1562 Q14.3027 29.3438 12.0996 29.3438 Q9.1934 29.3438 7.5371 27.2656 Q5.5527 24.7656 5.5527 19.1094 ZM8.084 19.1094 Q8.084 24.0469 9.2402 25.6797 Q10.3965 27.3125 12.0996 27.3125 Q13.7871 27.3125 14.9434 25.6719 Q16.0996 24.0312 16.0996 19.1094 Q16.0996 14.1719 14.9434 12.5391 Q13.7871 10.9062 12.0684 10.9062 Q10.3652 10.9062 9.3652 12.3438 Q8.084 14.1719 8.084 19.1094 Z"
         id="path20430" />
    </g>
    <g
       transform="translate(411.7,661.6)"
       style="font-size:28px; fill:rgb(38,38,38); text-rendering:geometricPrecision; image-rendering:optimizeQuality; color-rendering:optimizeQuality; font-family:'SansSerif'; stroke:rgb(38,38,38); color-interpolation:linearRGB;"
       id="g20436">
      <path
         style="stroke:none;"
         d="M-19.6094 22.9844 L-19.6094 20.5156 L-12.0469 20.5156 L-12.0469 22.9844 L-19.6094 22.9844 ZM2.7617 13.8594 L0.3086 14.0625 Q-0.0195 12.6094 -0.6133 11.9531 Q-1.6133 10.8906 -3.082 10.8906 Q-4.2539 10.8906 -5.1445 11.5469 Q-6.3008 12.4062 -6.9727 14.0312 Q-7.6445 15.6562 -7.6758 18.6562 Q-6.7852 17.3125 -5.5039 16.6562 Q-4.2227 16 -2.8008 16 Q-0.3477 16 1.3789 17.8125 Q3.1055 19.625 3.1055 22.4844 Q3.1055 24.375 2.293 26 Q1.4805 27.625 0.0586 28.4844 Q-1.3633 29.3438 -3.1602 29.3438 Q-6.2383 29.3438 -8.1836 27.0781 Q-10.1289 24.8125 -10.1289 19.625 Q-10.1289 13.8125 -7.9727 11.1719 Q-6.0977 8.875 -2.9258 8.875 Q-0.5664 8.875 0.9414 10.2031 Q2.4492 11.5312 2.7617 13.8594 ZM-7.2852 22.5 Q-7.2852 23.7812 -6.7461 24.9375 Q-6.207 26.0938 -5.2383 26.7031 Q-4.2695 27.3125 -3.207 27.3125 Q-1.6445 27.3125 -0.5273 26.0547 Q0.5898 24.7969 0.5898 22.6406 Q0.5898 20.5625 -0.5117 19.3672 Q-1.6133 18.1719 -3.3008 18.1719 Q-4.9727 18.1719 -6.1289 19.3672 Q-7.2852 20.5625 -7.2852 22.5 ZM5.5527 19.1094 Q5.5527 15.5625 6.2871 13.3906 Q7.0215 11.2188 8.4668 10.0469 Q9.9121 8.875 12.0996 8.875 Q13.709 8.875 14.9277 9.5234 Q16.1465 10.1719 16.9355 11.3984 Q17.7246 12.625 18.1777 14.3828 Q18.6309 16.1406 18.6309 19.1094 Q18.6309 22.6406 17.9043 24.8047 Q17.1777 26.9688 15.7402 28.1562 Q14.3027 29.3438 12.0996 29.3438 Q9.1934 29.3438 7.5371 27.2656 Q5.5527 24.7656 5.5527 19.1094 ZM8.084 19.1094 Q8.084 24.0469 9.2402 25.6797 Q10.3965 27.3125 12.0996 27.3125 Q13.7871 27.3125 14.9434 25.6719 Q16.0996 24.0312 16.0996 19.1094 Q16.0996 14.1719 14.9434 12.5391 Q13.7871 10.9062 12.0684 10.9062 Q10.3652 10.9062 9.3652 12.3438 Q8.084 14.1719 8.084 19.1094 Z"
         id="path20434" />
    </g>
    <g
       transform="translate(499.6,661.6)"
       style="font-size:28px; fill:rgb(38,38,38); text-rendering:geometricPrecision; image-rendering:optimizeQuality; color-rendering:optimizeQuality; font-family:'SansSerif'; stroke:rgb(38,38,38); color-interpolation:linearRGB;"
       id="g20440">
      <path
         style="stroke:none;"
         d="M-19.6094 22.9844 L-19.6094 20.5156 L-12.0469 20.5156 L-12.0469 22.9844 L-19.6094 22.9844 ZM-10.0039 23.7031 L-7.5352 23.375 Q-7.1133 25.4688 -6.0977 26.3906 Q-5.082 27.3125 -3.6133 27.3125 Q-1.8789 27.3125 -0.6836 26.1094 Q0.5117 24.9062 0.5117 23.1406 Q0.5117 21.4375 -0.5977 20.3359 Q-1.707 19.2344 -3.4102 19.2344 Q-4.1133 19.2344 -5.1445 19.5156 L-4.8789 17.3438 Q-4.6289 17.375 -4.4727 17.375 Q-2.9102 17.375 -1.6523 16.5547 Q-0.3945 15.7344 -0.3945 14.0312 Q-0.3945 12.6719 -1.3086 11.7812 Q-2.2227 10.8906 -3.6758 10.8906 Q-5.0977 10.8906 -6.0586 11.7969 Q-7.0195 12.7031 -7.2852 14.5 L-9.7539 14.0625 Q-9.3008 11.5938 -7.6992 10.2344 Q-6.0977 8.875 -3.7227 8.875 Q-2.082 8.875 -0.6992 9.5781 Q0.6836 10.2812 1.4102 11.5 Q2.1367 12.7188 2.1367 14.0781 Q2.1367 15.375 1.4414 16.4453 Q0.7461 17.5156 -0.6133 18.1406 Q1.1523 18.5469 2.1367 19.8438 Q3.1211 21.1406 3.1211 23.0781 Q3.1211 25.7031 1.207 27.5312 Q-0.707 29.3594 -3.6289 29.3594 Q-6.2695 29.3594 -8.0117 27.7812 Q-9.7539 26.2031 -10.0039 23.7031 ZM5.5527 19.1094 Q5.5527 15.5625 6.2871 13.3906 Q7.0215 11.2188 8.4668 10.0469 Q9.9121 8.875 12.0996 8.875 Q13.709 8.875 14.9277 9.5234 Q16.1465 10.1719 16.9355 11.3984 Q17.7246 12.625 18.1777 14.3828 Q18.6309 16.1406 18.6309 19.1094 Q18.6309 22.6406 17.9043 24.8047 Q17.1777 26.9688 15.7402 28.1562 Q14.3027 29.3438 12.0996 29.3438 Q9.1934 29.3438 7.5371 27.2656 Q5.5527 24.7656 5.5527 19.1094 ZM8.084 19.1094 Q8.084 24.0469 9.2402 25.6797 Q10.3965 27.3125 12.0996 27.3125 Q13.7871 27.3125 14.9434 25.6719 Q16.0996 24.0312 16.0996 19.1094 Q16.0996 14.1719 14.9434 12.5391 Q13.7871 10.9062 12.0684 10.9062 Q10.3652 10.9062 9.3652 12.3438 Q8.084 14.1719 8.084 19.1094 Z"
         id="path20438" />
    </g>
    <g
       transform="translate(587.5,661.6)"
       style="font-size:28px; fill:rgb(38,38,38); text-rendering:geometricPrecision; image-rendering:optimizeQuality; color-rendering:optimizeQuality; font-family:'SansSerif'; stroke:rgb(38,38,38); color-interpolation:linearRGB;"
       id="g20444">
      <path
         style="stroke:none;"
         d="M-6.8438 19.1094 Q-6.8438 15.5625 -6.1094 13.3906 Q-5.375 11.2188 -3.9297 10.0469 Q-2.4844 8.875 -0.2969 8.875 Q1.3125 8.875 2.5312 9.5234 Q3.75 10.1719 4.5391 11.3984 Q5.3281 12.625 5.7812 14.3828 Q6.2344 16.1406 6.2344 19.1094 Q6.2344 22.6406 5.5078 24.8047 Q4.7812 26.9688 3.3438 28.1562 Q1.9062 29.3438 -0.2969 29.3438 Q-3.2031 29.3438 -4.8594 27.2656 Q-6.8438 24.7656 -6.8438 19.1094 ZM-4.3125 19.1094 Q-4.3125 24.0469 -3.1562 25.6797 Q-2 27.3125 -0.2969 27.3125 Q1.3906 27.3125 2.5469 25.6719 Q3.7031 24.0312 3.7031 19.1094 Q3.7031 14.1719 2.5469 12.5391 Q1.3906 10.9062 -0.3281 10.9062 Q-2.0312 10.9062 -3.0312 12.3438 Q-4.3125 14.1719 -4.3125 19.1094 Z"
         id="path20442" />
    </g>
    <g
       transform="translate(675.4,661.6)"
       style="font-size:28px; fill:rgb(38,38,38); text-rendering:geometricPrecision; image-rendering:optimizeQuality; color-rendering:optimizeQuality; font-family:'SansSerif'; stroke:rgb(38,38,38); color-interpolation:linearRGB;"
       id="g20448">
      <path
         style="stroke:none;"
         d="M-14.8281 23.7031 L-12.3594 23.375 Q-11.9375 25.4688 -10.9219 26.3906 Q-9.9062 27.3125 -8.4375 27.3125 Q-6.7031 27.3125 -5.5078 26.1094 Q-4.3125 24.9062 -4.3125 23.1406 Q-4.3125 21.4375 -5.4219 20.3359 Q-6.5312 19.2344 -8.2344 19.2344 Q-8.9375 19.2344 -9.9688 19.5156 L-9.7031 17.3438 Q-9.4531 17.375 -9.2969 17.375 Q-7.7344 17.375 -6.4766 16.5547 Q-5.2188 15.7344 -5.2188 14.0312 Q-5.2188 12.6719 -6.1328 11.7812 Q-7.0469 10.8906 -8.5 10.8906 Q-9.9219 10.8906 -10.8828 11.7969 Q-11.8438 12.7031 -12.1094 14.5 L-14.5781 14.0625 Q-14.125 11.5938 -12.5234 10.2344 Q-10.9219 8.875 -8.5469 8.875 Q-6.9062 8.875 -5.5234 9.5781 Q-4.1406 10.2812 -3.4141 11.5 Q-2.6875 12.7188 -2.6875 14.0781 Q-2.6875 15.375 -3.3828 16.4453 Q-4.0781 17.5156 -5.4375 18.1406 Q-3.6719 18.5469 -2.6875 19.8438 Q-1.7031 21.1406 -1.7031 23.0781 Q-1.7031 25.7031 -3.6172 27.5312 Q-5.5312 29.3594 -8.4531 29.3594 Q-11.0938 29.3594 -12.8359 27.7812 Q-14.5781 26.2031 -14.8281 23.7031 ZM0.7285 19.1094 Q0.7285 15.5625 1.4629 13.3906 Q2.1973 11.2188 3.6426 10.0469 Q5.0879 8.875 7.2754 8.875 Q8.8848 8.875 10.1035 9.5234 Q11.3223 10.1719 12.1113 11.3984 Q12.9004 12.625 13.3535 14.3828 Q13.8066 16.1406 13.8066 19.1094 Q13.8066 22.6406 13.0801 24.8047 Q12.3535 26.9688 10.916 28.1562 Q9.4785 29.3438 7.2754 29.3438 Q4.3691 29.3438 2.7129 27.2656 Q0.7285 24.7656 0.7285 19.1094 ZM3.2598 19.1094 Q3.2598 24.0469 4.416 25.6797 Q5.5723 27.3125 7.2754 27.3125 Q8.9629 27.3125 10.1191 25.6719 Q11.2754 24.0312 11.2754 19.1094 Q11.2754 14.1719 10.1191 12.5391 Q8.9629 10.9062 7.2441 10.9062 Q5.541 10.9062 4.541 12.3438 Q3.2598 14.1719 3.2598 19.1094 Z"
         id="path20446" />
    </g>
    <g
       transform="translate(763.3,661.6)"
       style="font-size:28px; fill:rgb(38,38,38); text-rendering:geometricPrecision; image-rendering:optimizeQuality; color-rendering:optimizeQuality; font-family:'SansSerif'; stroke:rgb(38,38,38); color-interpolation:linearRGB;"
       id="g20452">
      <path
         style="stroke:none;"
         d="M-2.0625 13.8594 L-4.5156 14.0625 Q-4.8438 12.6094 -5.4375 11.9531 Q-6.4375 10.8906 -7.9062 10.8906 Q-9.0781 10.8906 -9.9688 11.5469 Q-11.125 12.4062 -11.7969 14.0312 Q-12.4688 15.6562 -12.5 18.6562 Q-11.6094 17.3125 -10.3281 16.6562 Q-9.0469 16 -7.625 16 Q-5.1719 16 -3.4453 17.8125 Q-1.7188 19.625 -1.7188 22.4844 Q-1.7188 24.375 -2.5312 26 Q-3.3438 27.625 -4.7656 28.4844 Q-6.1875 29.3438 -7.9844 29.3438 Q-11.0625 29.3438 -13.0078 27.0781 Q-14.9531 24.8125 -14.9531 19.625 Q-14.9531 13.8125 -12.7969 11.1719 Q-10.9219 8.875 -7.75 8.875 Q-5.3906 8.875 -3.8828 10.2031 Q-2.375 11.5312 -2.0625 13.8594 ZM-12.1094 22.5 Q-12.1094 23.7812 -11.5703 24.9375 Q-11.0312 26.0938 -10.0625 26.7031 Q-9.0938 27.3125 -8.0312 27.3125 Q-6.4688 27.3125 -5.3516 26.0547 Q-4.2344 24.7969 -4.2344 22.6406 Q-4.2344 20.5625 -5.3359 19.3672 Q-6.4375 18.1719 -8.125 18.1719 Q-9.7969 18.1719 -10.9531 19.3672 Q-12.1094 20.5625 -12.1094 22.5 ZM0.7285 19.1094 Q0.7285 15.5625 1.4629 13.3906 Q2.1973 11.2188 3.6426 10.0469 Q5.0879 8.875 7.2754 8.875 Q8.8848 8.875 10.1035 9.5234 Q11.3223 10.1719 12.1113 11.3984 Q12.9004 12.625 13.3535 14.3828 Q13.8066 16.1406 13.8066 19.1094 Q13.8066 22.6406 13.0801 24.8047 Q12.3535 26.9688 10.916 28.1562 Q9.4785 29.3438 7.2754 29.3438 Q4.3691 29.3438 2.7129 27.2656 Q0.7285 24.7656 0.7285 19.1094 ZM3.2598 19.1094 Q3.2598 24.0469 4.416 25.6797 Q5.5723 27.3125 7.2754 27.3125 Q8.9629 27.3125 10.1191 25.6719 Q11.2754 24.0312 11.2754 19.1094 Q11.2754 14.1719 10.1191 12.5391 Q8.9629 10.9062 7.2441 10.9062 Q5.541 10.9062 4.541 12.3438 Q3.2598 14.1719 3.2598 19.1094 Z"
         id="path20450" />
    </g>
    <g
       transform="translate(851.2,661.6)"
       style="font-size:28px; fill:rgb(38,38,38); text-rendering:geometricPrecision; image-rendering:optimizeQuality; color-rendering:optimizeQuality; font-family:'SansSerif'; stroke:rgb(38,38,38); color-interpolation:linearRGB;"
       id="g20456">
      <path
         style="stroke:none;"
         d="M-14.4688 24.3594 L-12.1094 24.1406 Q-11.7969 25.8125 -10.9531 26.5625 Q-10.1094 27.3125 -8.7812 27.3125 Q-7.6406 27.3125 -6.7891 26.7969 Q-5.9375 26.2812 -5.3906 25.4141 Q-4.8438 24.5469 -4.4766 23.0703 Q-4.1094 21.5938 -4.1094 20.0625 Q-4.1094 19.8906 -4.125 19.5625 Q-4.8594 20.7344 -6.1328 21.4688 Q-7.4062 22.2031 -8.9062 22.2031 Q-11.3906 22.2031 -13.1172 20.3984 Q-14.8438 18.5938 -14.8438 15.6406 Q-14.8438 12.5938 -13.0391 10.7344 Q-11.2344 8.875 -8.5312 8.875 Q-6.5781 8.875 -4.9609 9.9297 Q-3.3438 10.9844 -2.5 12.9297 Q-1.6562 14.875 -1.6562 18.5625 Q-1.6562 22.4062 -2.4922 24.6875 Q-3.3281 26.9688 -4.9766 28.1562 Q-6.625 29.3438 -8.8281 29.3438 Q-11.1875 29.3438 -12.6797 28.0391 Q-14.1719 26.7344 -14.4688 24.3594 ZM-4.3906 15.5156 Q-4.3906 13.4062 -5.5156 12.1562 Q-6.6406 10.9062 -8.2344 10.9062 Q-9.875 10.9062 -11.0938 12.25 Q-12.3125 13.5938 -12.3125 15.7188 Q-12.3125 17.6406 -11.1562 18.8359 Q-10 20.0312 -8.2969 20.0312 Q-6.5938 20.0312 -5.4922 18.8359 Q-4.3906 17.6406 -4.3906 15.5156 ZM0.7285 19.1094 Q0.7285 15.5625 1.4629 13.3906 Q2.1973 11.2188 3.6426 10.0469 Q5.0879 8.875 7.2754 8.875 Q8.8848 8.875 10.1035 9.5234 Q11.3223 10.1719 12.1113 11.3984 Q12.9004 12.625 13.3535 14.3828 Q13.8066 16.1406 13.8066 19.1094 Q13.8066 22.6406 13.0801 24.8047 Q12.3535 26.9688 10.916 28.1562 Q9.4785 29.3438 7.2754 29.3438 Q4.3691 29.3438 2.7129 27.2656 Q0.7285 24.7656 0.7285 19.1094 ZM3.2598 19.1094 Q3.2598 24.0469 4.416 25.6797 Q5.5723 27.3125 7.2754 27.3125 Q8.9629 27.3125 10.1191 25.6719 Q11.2754 24.0312 11.2754 19.1094 Q11.2754 14.1719 10.1191 12.5391 Q8.9629 10.9062 7.2441 10.9062 Q5.541 10.9062 4.541 12.3438 Q3.2598 14.1719 3.2598 19.1094 Z"
         id="path20454" />
    </g>
    <g
       transform="translate(939.1,661.6)"
       style="font-size:28px; fill:rgb(38,38,38); text-rendering:geometricPrecision; image-rendering:optimizeQuality; color-rendering:optimizeQuality; font-family:'SansSerif'; stroke:rgb(38,38,38); color-interpolation:linearRGB;"
       id="g20460">
      <path
         style="stroke:none;"
         d="M-13.0625 29 L-15.5312 29 L-15.5312 13.3125 Q-16.4219 14.1719 -17.8594 15.0156 Q-19.2969 15.8594 -20.4531 16.2812 L-20.4531 13.9062 Q-18.3906 12.9375 -16.8438 11.5547 Q-15.2969 10.1719 -14.6562 8.875 L-13.0625 8.875 L-13.0625 29 ZM6.166 26.6406 L6.166 29 L-7.084 29 Q-7.0996 28.1094 -6.7871 27.2969 Q-6.2871 25.9375 -5.1699 24.625 Q-4.0527 23.3125 -1.959 21.5938 Q1.3223 18.9062 2.4707 17.3438 Q3.6191 15.7812 3.6191 14.3906 Q3.6191 12.9219 2.5723 11.9141 Q1.5254 10.9062 -0.1621 10.9062 Q-1.9434 10.9062 -3.0059 11.9766 Q-4.0684 13.0469 -4.084 14.9375 L-6.6152 14.6719 Q-6.3496 11.8438 -4.6543 10.3594 Q-2.959 8.875 -0.0996 8.875 Q2.7754 8.875 4.4551 10.4766 Q6.1348 12.0781 6.1348 14.4375 Q6.1348 15.6406 5.6426 16.8047 Q5.1504 17.9688 4.0098 19.25 Q2.8691 20.5312 0.2285 22.7812 Q-1.9902 24.6406 -2.623 25.3047 Q-3.2559 25.9688 -3.6621 26.6406 L6.166 26.6406 ZM8.8008 19.1094 Q8.8008 15.5625 9.5352 13.3906 Q10.2695 11.2188 11.7148 10.0469 Q13.1602 8.875 15.3477 8.875 Q16.957 8.875 18.1758 9.5234 Q19.3945 10.1719 20.1836 11.3984 Q20.9727 12.625 21.4258 14.3828 Q21.8789 16.1406 21.8789 19.1094 Q21.8789 22.6406 21.1523 24.8047 Q20.4258 26.9688 18.9883 28.1562 Q17.5508 29.3438 15.3477 29.3438 Q12.4414 29.3438 10.7852 27.2656 Q8.8008 24.7656 8.8008 19.1094 ZM11.332 19.1094 Q11.332 24.0469 12.4883 25.6797 Q13.6445 27.3125 15.3477 27.3125 Q17.0352 27.3125 18.1914 25.6719 Q19.3477 24.0312 19.3477 19.1094 Q19.3477 14.1719 18.1914 12.5391 Q17.0352 10.9062 15.3164 10.9062 Q13.6133 10.9062 12.6133 12.3438 Q11.332 14.1719 11.332 19.1094 Z"
         id="path20458" />
    </g>
    <g
       transform="translate(1027,661.6)"
       style="font-size:28px; fill:rgb(38,38,38); text-rendering:geometricPrecision; image-rendering:optimizeQuality; color-rendering:optimizeQuality; font-family:'SansSerif'; stroke:rgb(38,38,38); color-interpolation:linearRGB;"
       id="g20464">
      <path
         style="stroke:none;"
         d="M-13.0625 29 L-15.5312 29 L-15.5312 13.3125 Q-16.4219 14.1719 -17.8594 15.0156 Q-19.2969 15.8594 -20.4531 16.2812 L-20.4531 13.9062 Q-18.3906 12.9375 -16.8438 11.5547 Q-15.2969 10.1719 -14.6562 8.875 L-13.0625 8.875 L-13.0625 29 ZM-6.7715 23.75 L-4.1777 23.5312 Q-3.8965 25.4219 -2.8496 26.3672 Q-1.8027 27.3125 -0.3184 27.3125 Q1.4473 27.3125 2.6816 25.9766 Q3.916 24.6406 3.916 22.4219 Q3.916 20.3125 2.7285 19.1016 Q1.541 17.8906 -0.3652 17.8906 Q-1.5527 17.8906 -2.5137 18.4297 Q-3.4746 18.9688 -4.0215 19.8281 L-6.334 19.5312 L-4.3809 9.2344 L5.5879 9.2344 L5.5879 11.5781 L-2.4121 11.5781 L-3.4902 16.9688 Q-1.6934 15.7031 0.291 15.7031 Q2.916 15.7031 4.7207 17.5234 Q6.5254 19.3438 6.5254 22.2031 Q6.5254 24.9219 4.9316 26.9062 Q3.0098 29.3438 -0.3184 29.3438 Q-3.0527 29.3438 -4.7871 27.8125 Q-6.5215 26.2812 -6.7715 23.75 ZM8.8008 19.1094 Q8.8008 15.5625 9.5352 13.3906 Q10.2695 11.2188 11.7148 10.0469 Q13.1602 8.875 15.3477 8.875 Q16.957 8.875 18.1758 9.5234 Q19.3945 10.1719 20.1836 11.3984 Q20.9727 12.625 21.4258 14.3828 Q21.8789 16.1406 21.8789 19.1094 Q21.8789 22.6406 21.1523 24.8047 Q20.4258 26.9688 18.9883 28.1562 Q17.5508 29.3438 15.3477 29.3438 Q12.4414 29.3438 10.7852 27.2656 Q8.8008 24.7656 8.8008 19.1094 ZM11.332 19.1094 Q11.332 24.0469 12.4883 25.6797 Q13.6445 27.3125 15.3477 27.3125 Q17.0352 27.3125 18.1914 25.6719 Q19.3477 24.0312 19.3477 19.1094 Q19.3477 14.1719 18.1914 12.5391 Q17.0352 10.9062 15.3164 10.9062 Q13.6133 10.9062 12.6133 12.3438 Q11.332 14.1719 11.332 19.1094 Z"
         id="path20462" />
    </g>
    <g
       transform="translate(539,731)"
       style="font-size:30.8px; fill:rgb(38,38,38); text-rendering:geometricPrecision; image-rendering:optimizeQuality; color-rendering:optimizeQuality; font-family:'mwb_cmmi10'; stroke:rgb(38,38,38); color-interpolation:linearRGB;"
       id="g20468">
      <path
         style="stroke:none;"
         d="M1.3281 6.0156 Q1.1875 6.0156 1.0391 5.8828 Q0.8906 5.75 0.8906 5.6094 Q0.8906 5.4062 1.0312 5.2969 L8.6094 -3.1406 Q8.0938 -5.0156 7.4531 -7.0469 Q6.8125 -9.0781 5.9141 -10.9844 Q5.0156 -12.8906 4.3125 -12.8906 Q3.7031 -12.8906 3.3594 -12.5625 Q3.0156 -12.2344 2.75 -11.7422 Q2.4844 -11.25 2.3906 -11.2188 L2.0156 -11.2188 Q1.9219 -11.2188 1.8438 -11.3203 Q1.7656 -11.4219 1.7656 -11.5312 Q1.7656 -12.0312 2.2031 -12.5391 Q2.6406 -13.0469 3.2656 -13.375 Q3.8906 -13.7031 4.4375 -13.7031 Q5.6562 -13.7031 6.6562 -13.2656 Q7.6562 -12.8281 8.1562 -11.8438 Q8.5938 -10.9062 9.0078 -9.8203 Q9.4219 -8.7344 9.7891 -7.5078 Q10.1562 -6.2812 10.4688 -5.1719 L17.6719 -13.1719 Q17.8125 -13.3594 18.0469 -13.3594 Q18.2188 -13.3594 18.3516 -13.25 Q18.4844 -13.1406 18.4844 -12.9531 Q18.4844 -12.7656 18.3438 -12.6562 L10.7656 -4.2188 Q11.125 -2.8438 11.8516 -0.5547 Q12.5781 1.7344 13.4609 3.6484 Q14.3438 5.5625 15.0625 5.5625 Q15.6406 5.5625 16 5.2188 Q16.3594 4.875 16.6328 4.3906 Q16.9062 3.9062 16.9844 3.875 L17.3594 3.875 Q17.6094 3.875 17.6094 4.1719 Q17.6094 4.9531 16.6875 5.6562 Q15.7656 6.3594 14.9375 6.3594 Q13.7344 6.3594 12.7344 5.9219 Q11.7344 5.4844 11.25 4.5 Q10.0938 2.0469 8.9062 -2.1719 L1.7031 5.8281 Q1.5625 6.0156 1.3281 6.0156 Z"
         id="path20466" />
    </g>
    <g
       transform="translate(559,731)"
       style="font-size:30.8px; fill:rgb(38,38,38); text-rendering:geometricPrecision; image-rendering:optimizeQuality; color-rendering:optimizeQuality; font-family:'SansSerif'; stroke:rgb(38,38,38); color-interpolation:linearRGB;"
       id="g20472">
      <path
         style="stroke:none;"
         d="M10.6614 6.1562 L10.6614 -22.1875 L16.6614 -22.1875 L16.6614 -19.9375 L13.3801 -19.9375 L13.3801 3.9062 L16.6614 3.9062 L16.6614 6.1562 L10.6614 6.1562 ZM29.5728 0 L29.5728 -2.0312 Q28.0415 0.3594 25.0884 0.3594 Q23.1665 0.3594 21.5493 -0.6953 Q19.9322 -1.75 19.0493 -3.6562 Q18.1665 -5.5625 18.1665 -8.0156 Q18.1665 -10.4219 18.9712 -12.3828 Q19.7759 -14.3438 21.3775 -15.3906 Q22.979 -16.4375 24.9634 -16.4375 Q26.4165 -16.4375 27.5493 -15.8281 Q28.6822 -15.2188 29.4009 -14.2344 L29.4009 -22.1875 L32.104 -22.1875 L32.104 0 L29.5728 0 ZM20.9634 -8.0156 Q20.9634 -4.9375 22.2681 -3.4062 Q23.5728 -1.875 25.3384 -1.875 Q27.1197 -1.875 28.3697 -3.3359 Q29.6197 -4.7969 29.6197 -7.7969 Q29.6197 -11.0938 28.3462 -12.6406 Q27.0728 -14.1875 25.2134 -14.1875 Q23.4009 -14.1875 22.1822 -12.7031 Q20.9634 -11.2188 20.9634 -8.0156 ZM47.27 -5.1719 L50.0825 -4.8281 Q49.4262 -2.3594 47.6215 -1 Q45.8168 0.3594 43.02 0.3594 Q39.4887 0.3594 37.4262 -1.8125 Q35.3637 -3.9844 35.3637 -7.9062 Q35.3637 -11.9531 37.4497 -14.1953 Q39.5356 -16.4375 42.8637 -16.4375 Q46.0981 -16.4375 48.1372 -14.2422 Q50.1762 -12.0469 50.1762 -8.0625 Q50.1762 -7.8281 50.1606 -7.3438 L38.1762 -7.3438 Q38.3325 -4.6875 39.6762 -3.2812 Q41.02 -1.875 43.0356 -1.875 Q44.5356 -1.875 45.5903 -2.6641 Q46.645 -3.4531 47.27 -5.1719 ZM38.3325 -9.5781 L47.3012 -9.5781 Q47.1137 -11.6094 46.27 -12.625 Q44.9731 -14.2031 42.895 -14.2031 Q41.02 -14.2031 39.7387 -12.9453 Q38.4575 -11.6875 38.3325 -9.5781 ZM52.889 1.3281 L55.5297 1.7188 Q55.7015 2.9531 56.4515 3.5156 Q57.4672 4.2656 59.2328 4.2656 Q61.1234 4.2656 62.1547 3.5078 Q63.1859 2.75 63.5453 1.3906 Q63.7484 0.5625 63.7328 -2.1094 Q61.9515 0 59.2953 0 Q55.9672 0 54.1547 -2.3906 Q52.3422 -4.7812 52.3422 -8.125 Q52.3422 -10.4219 53.1781 -12.3672 Q54.014 -14.3125 55.5922 -15.375 Q57.1703 -16.4375 59.3109 -16.4375 Q62.1547 -16.4375 63.9984 -14.1406 L63.9984 -16.0781 L66.514 -16.0781 L66.514 -2.1875 Q66.514 1.5781 65.7484 3.1406 Q64.9828 4.7031 63.3265 5.6172 Q61.6703 6.5312 59.2484 6.5312 Q56.3734 6.5312 54.6 5.2344 Q52.8265 3.9375 52.889 1.3281 ZM55.139 -8.3281 Q55.139 -5.1562 56.3969 -3.7031 Q57.6547 -2.25 59.5453 -2.25 Q61.4203 -2.25 62.6937 -3.6953 Q63.9672 -5.1406 63.9672 -8.2344 Q63.9672 -11.1875 62.6547 -12.6875 Q61.3422 -14.1875 59.4984 -14.1875 Q57.6859 -14.1875 56.4125 -12.7109 Q55.139 -11.2344 55.139 -8.3281 ZM75.055 6.1562 L69.055 6.1562 L69.055 3.9062 L72.3362 3.9062 L72.3362 -19.9375 L69.055 -19.9375 L69.055 -22.1875 L75.055 -22.1875 L75.055 6.1562 Z"
         id="path20470" />
    </g>
    <g
       style="fill:rgb(38,38,38); text-rendering:geometricPrecision; image-rendering:optimizeQuality; color-rendering:optimizeQuality; stroke-linejoin:round; stroke:rgb(38,38,38); color-interpolation:linearRGB; stroke-width:2;"
       id="g20502">
      <line
         y2="55"
         style="fill:none;"
         x1="148"
         x2="148"
         y1="652"
         id="line20474" />
      <line
         y2="55"
         style="fill:none;"
         x1="1027"
         x2="1027"
         y1="652"
         id="line20476" />
      <line
         y2="652"
         style="fill:none;"
         x1="148"
         x2="156.79"
         y1="652"
         id="line20478" />
      <line
         y2="532.6"
         style="fill:none;"
         x1="148"
         x2="156.79"
         y1="532.6"
         id="line20480" />
      <line
         y2="413.2"
         style="fill:none;"
         x1="148"
         x2="156.79"
         y1="413.2"
         id="line20482" />
      <line
         y2="293.8"
         style="fill:none;"
         x1="148"
         x2="156.79"
         y1="293.8"
         id="line20484" />
      <line
         y2="174.4"
         style="fill:none;"
         x1="148"
         x2="156.79"
         y1="174.4"
         id="line20486" />
      <line
         y2="55"
         style="fill:none;"
         x1="148"
         x2="156.79"
         y1="55"
         id="line20488" />
      <line
         y2="652"
         style="fill:none;"
         x1="1027"
         x2="1018.21"
         y1="652"
         id="line20490" />
      <line
         y2="532.6"
         style="fill:none;"
         x1="1027"
         x2="1018.21"
         y1="532.6"
         id="line20492" />
      <line
         y2="413.2"
         style="fill:none;"
         x1="1027"
         x2="1018.21"
         y1="413.2"
         id="line20494" />
      <line
         y2="293.8"
         style="fill:none;"
         x1="1027"
         x2="1018.21"
         y1="293.8"
         id="line20496" />
      <line
         y2="174.4"
         style="fill:none;"
         x1="1027"
         x2="1018.21"
         y1="174.4"
         id="line20498" />
      <line
         y2="55"
         style="fill:none;"
         x1="1027"
         x2="1018.21"
         y1="55"
         id="line20500" />
    </g>
    <g
       transform="translate(138.4,652)"
       style="font-size:28px; fill:rgb(38,38,38); text-rendering:geometricPrecision; image-rendering:optimizeQuality; color-rendering:optimizeQuality; font-family:'SansSerif'; stroke:rgb(38,38,38); color-interpolation:linearRGB;"
       id="g20506">
      <path
         style="stroke:none;"
         d="M-14.8438 1.1094 Q-14.8438 -2.4375 -14.1094 -4.6094 Q-13.375 -6.7812 -11.9297 -7.9531 Q-10.4844 -9.125 -8.2969 -9.125 Q-6.6875 -9.125 -5.4688 -8.4766 Q-4.25 -7.8281 -3.4609 -6.6016 Q-2.6719 -5.375 -2.2188 -3.6172 Q-1.7656 -1.8594 -1.7656 1.1094 Q-1.7656 4.6406 -2.4922 6.8047 Q-3.2188 8.9688 -4.6562 10.1562 Q-6.0938 11.3438 -8.2969 11.3438 Q-11.2031 11.3438 -12.8594 9.2656 Q-14.8438 6.7656 -14.8438 1.1094 ZM-12.3125 1.1094 Q-12.3125 6.0469 -11.1562 7.6797 Q-10 9.3125 -8.2969 9.3125 Q-6.6094 9.3125 -5.4531 7.6719 Q-4.2969 6.0312 -4.2969 1.1094 Q-4.2969 -3.8281 -5.4531 -5.4609 Q-6.6094 -7.0938 -8.3281 -7.0938 Q-10.0312 -7.0938 -11.0312 -5.6562 Q-12.3125 -3.8281 -12.3125 1.1094 Z"
         id="path20504" />
    </g>
    <g
       transform="translate(138.4,532.6)"
       style="font-size:28px; fill:rgb(38,38,38); text-rendering:geometricPrecision; image-rendering:optimizeQuality; color-rendering:optimizeQuality; font-family:'SansSerif'; stroke:rgb(38,38,38); color-interpolation:linearRGB;"
       id="g20510">
      <path
         style="stroke:none;"
         d="M-37.8438 1.1094 Q-37.8438 -2.4375 -37.1094 -4.6094 Q-36.375 -6.7812 -34.9297 -7.9531 Q-33.4844 -9.125 -31.2969 -9.125 Q-29.6875 -9.125 -28.4688 -8.4766 Q-27.25 -7.8281 -26.4609 -6.6016 Q-25.6719 -5.375 -25.2188 -3.6172 Q-24.7656 -1.8594 -24.7656 1.1094 Q-24.7656 4.6406 -25.4922 6.8047 Q-26.2188 8.9688 -27.6562 10.1562 Q-29.0938 11.3438 -31.2969 11.3438 Q-34.2031 11.3438 -35.8594 9.2656 Q-37.8438 6.7656 -37.8438 1.1094 ZM-35.3125 1.1094 Q-35.3125 6.0469 -34.1562 7.6797 Q-33 9.3125 -31.2969 9.3125 Q-29.6094 9.3125 -28.4531 7.6719 Q-27.2969 6.0312 -27.2969 1.1094 Q-27.2969 -3.8281 -28.4531 -5.4609 Q-29.6094 -7.0938 -31.3281 -7.0938 Q-33.0312 -7.0938 -34.0312 -5.6562 Q-35.3125 -3.8281 -35.3125 1.1094 ZM-20.8809 11 L-20.8809 8.2031 L-18.084 8.2031 L-18.084 11 L-20.8809 11 ZM-1.5547 8.6406 L-1.5547 11 L-14.8047 11 Q-14.8203 10.1094 -14.5078 9.2969 Q-14.0078 7.9375 -12.8906 6.625 Q-11.7734 5.3125 -9.6797 3.5938 Q-6.3984 0.9062 -5.25 -0.6562 Q-4.1016 -2.2188 -4.1016 -3.6094 Q-4.1016 -5.0781 -5.1484 -6.0859 Q-6.1953 -7.0938 -7.8828 -7.0938 Q-9.6641 -7.0938 -10.7266 -6.0234 Q-11.7891 -4.9531 -11.8047 -3.0625 L-14.3359 -3.3281 Q-14.0703 -6.1562 -12.375 -7.6406 Q-10.6797 -9.125 -7.8203 -9.125 Q-4.9453 -9.125 -3.2656 -7.5234 Q-1.5859 -5.9219 -1.5859 -3.5625 Q-1.5859 -2.3594 -2.0781 -1.1953 Q-2.5703 -0.0312 -3.7109 1.25 Q-4.8516 2.5312 -7.4922 4.7812 Q-9.7109 6.6406 -10.3438 7.3047 Q-10.9766 7.9688 -11.3828 8.6406 L-1.5547 8.6406 Z"
         id="path20508" />
    </g>
    <g
       transform="translate(138.4,413.2)"
       style="font-size:28px; fill:rgb(38,38,38); text-rendering:geometricPrecision; image-rendering:optimizeQuality; color-rendering:optimizeQuality; font-family:'SansSerif'; stroke:rgb(38,38,38); color-interpolation:linearRGB;"
       id="g20514">
      <path
         style="stroke:none;"
         d="M-37.8438 1.1094 Q-37.8438 -2.4375 -37.1094 -4.6094 Q-36.375 -6.7812 -34.9297 -7.9531 Q-33.4844 -9.125 -31.2969 -9.125 Q-29.6875 -9.125 -28.4688 -8.4766 Q-27.25 -7.8281 -26.4609 -6.6016 Q-25.6719 -5.375 -25.2188 -3.6172 Q-24.7656 -1.8594 -24.7656 1.1094 Q-24.7656 4.6406 -25.4922 6.8047 Q-26.2188 8.9688 -27.6562 10.1562 Q-29.0938 11.3438 -31.2969 11.3438 Q-34.2031 11.3438 -35.8594 9.2656 Q-37.8438 6.7656 -37.8438 1.1094 ZM-35.3125 1.1094 Q-35.3125 6.0469 -34.1562 7.6797 Q-33 9.3125 -31.2969 9.3125 Q-29.6094 9.3125 -28.4531 7.6719 Q-27.2969 6.0312 -27.2969 1.1094 Q-27.2969 -3.8281 -28.4531 -5.4609 Q-29.6094 -7.0938 -31.3281 -7.0938 Q-33.0312 -7.0938 -34.0312 -5.6562 Q-35.3125 -3.8281 -35.3125 1.1094 ZM-20.8809 11 L-20.8809 8.2031 L-18.084 8.2031 L-18.084 11 L-20.8809 11 ZM-6.6016 11 L-6.6016 6.2031 L-15.2891 6.2031 L-15.2891 3.9375 L-6.1484 -9.0469 L-4.1328 -9.0469 L-4.1328 3.9375 L-1.4297 3.9375 L-1.4297 6.2031 L-4.1328 6.2031 L-4.1328 11 L-6.6016 11 ZM-6.6016 3.9375 L-6.6016 -5.0938 L-12.8672 3.9375 L-6.6016 3.9375 Z"
         id="path20512" />
    </g>
    <g
       transform="translate(138.4,293.8)"
       style="font-size:28px; fill:rgb(38,38,38); text-rendering:geometricPrecision; image-rendering:optimizeQuality; color-rendering:optimizeQuality; font-family:'SansSerif'; stroke:rgb(38,38,38); color-interpolation:linearRGB;"
       id="g20518">
      <path
         style="stroke:none;"
         d="M-37.8438 1.1094 Q-37.8438 -2.4375 -37.1094 -4.6094 Q-36.375 -6.7812 -34.9297 -7.9531 Q-33.4844 -9.125 -31.2969 -9.125 Q-29.6875 -9.125 -28.4688 -8.4766 Q-27.25 -7.8281 -26.4609 -6.6016 Q-25.6719 -5.375 -25.2188 -3.6172 Q-24.7656 -1.8594 -24.7656 1.1094 Q-24.7656 4.6406 -25.4922 6.8047 Q-26.2188 8.9688 -27.6562 10.1562 Q-29.0938 11.3438 -31.2969 11.3438 Q-34.2031 11.3438 -35.8594 9.2656 Q-37.8438 6.7656 -37.8438 1.1094 ZM-35.3125 1.1094 Q-35.3125 6.0469 -34.1562 7.6797 Q-33 9.3125 -31.2969 9.3125 Q-29.6094 9.3125 -28.4531 7.6719 Q-27.2969 6.0312 -27.2969 1.1094 Q-27.2969 -3.8281 -28.4531 -5.4609 Q-29.6094 -7.0938 -31.3281 -7.0938 Q-33.0312 -7.0938 -34.0312 -5.6562 Q-35.3125 -3.8281 -35.3125 1.1094 ZM-20.8809 11 L-20.8809 8.2031 L-18.084 8.2031 L-18.084 11 L-20.8809 11 ZM-1.7109 -4.1406 L-4.1641 -3.9375 Q-4.4922 -5.3906 -5.0859 -6.0469 Q-6.0859 -7.1094 -7.5547 -7.1094 Q-8.7266 -7.1094 -9.6172 -6.4531 Q-10.7734 -5.5938 -11.4453 -3.9688 Q-12.1172 -2.3438 -12.1484 0.6562 Q-11.2578 -0.6875 -9.9766 -1.3438 Q-8.6953 -2 -7.2734 -2 Q-4.8203 -2 -3.0938 -0.1875 Q-1.3672 1.625 -1.3672 4.4844 Q-1.3672 6.375 -2.1797 8 Q-2.9922 9.625 -4.4141 10.4844 Q-5.8359 11.3438 -7.6328 11.3438 Q-10.7109 11.3438 -12.6562 9.0781 Q-14.6016 6.8125 -14.6016 1.625 Q-14.6016 -4.1875 -12.4453 -6.8281 Q-10.5703 -9.125 -7.3984 -9.125 Q-5.0391 -9.125 -3.5312 -7.7969 Q-2.0234 -6.4688 -1.7109 -4.1406 ZM-11.7578 4.5 Q-11.7578 5.7812 -11.2188 6.9375 Q-10.6797 8.0938 -9.7109 8.7031 Q-8.7422 9.3125 -7.6797 9.3125 Q-6.1172 9.3125 -5 8.0547 Q-3.8828 6.7969 -3.8828 4.6406 Q-3.8828 2.5625 -4.9844 1.3672 Q-6.0859 0.1719 -7.7734 0.1719 Q-9.4453 0.1719 -10.6016 1.3672 Q-11.7578 2.5625 -11.7578 4.5 Z"
         id="path20516" />
    </g>
    <g
       transform="translate(138.4,174.4)"
       style="font-size:28px; fill:rgb(38,38,38); text-rendering:geometricPrecision; image-rendering:optimizeQuality; color-rendering:optimizeQuality; font-family:'SansSerif'; stroke:rgb(38,38,38); color-interpolation:linearRGB;"
       id="g20522">
      <path
         style="stroke:none;"
         d="M-37.8438 1.1094 Q-37.8438 -2.4375 -37.1094 -4.6094 Q-36.375 -6.7812 -34.9297 -7.9531 Q-33.4844 -9.125 -31.2969 -9.125 Q-29.6875 -9.125 -28.4688 -8.4766 Q-27.25 -7.8281 -26.4609 -6.6016 Q-25.6719 -5.375 -25.2188 -3.6172 Q-24.7656 -1.8594 -24.7656 1.1094 Q-24.7656 4.6406 -25.4922 6.8047 Q-26.2188 8.9688 -27.6562 10.1562 Q-29.0938 11.3438 -31.2969 11.3438 Q-34.2031 11.3438 -35.8594 9.2656 Q-37.8438 6.7656 -37.8438 1.1094 ZM-35.3125 1.1094 Q-35.3125 6.0469 -34.1562 7.6797 Q-33 9.3125 -31.2969 9.3125 Q-29.6094 9.3125 -28.4531 7.6719 Q-27.2969 6.0312 -27.2969 1.1094 Q-27.2969 -3.8281 -28.4531 -5.4609 Q-29.6094 -7.0938 -31.3281 -7.0938 Q-33.0312 -7.0938 -34.0312 -5.6562 Q-35.3125 -3.8281 -35.3125 1.1094 ZM-20.8809 11 L-20.8809 8.2031 L-18.084 8.2031 L-18.084 11 L-20.8809 11 ZM-10.6953 0.125 Q-12.2266 -0.4375 -12.9688 -1.4766 Q-13.7109 -2.5156 -13.7109 -3.9531 Q-13.7109 -6.1406 -12.1328 -7.6328 Q-10.5547 -9.125 -7.9453 -9.125 Q-5.3203 -9.125 -3.7266 -7.6016 Q-2.1328 -6.0781 -2.1328 -3.8906 Q-2.1328 -2.5 -2.8594 -1.4688 Q-3.5859 -0.4375 -5.0859 0.125 Q-3.2266 0.7344 -2.2656 2.0703 Q-1.3047 3.4062 -1.3047 5.2656 Q-1.3047 7.8438 -3.125 9.5938 Q-4.9453 11.3438 -7.9141 11.3438 Q-10.8828 11.3438 -12.6953 9.5859 Q-14.5078 7.8281 -14.5078 5.2031 Q-14.5078 3.25 -13.5156 1.9297 Q-12.5234 0.6094 -10.6953 0.125 ZM-11.1953 -4.0469 Q-11.1953 -2.625 -10.2734 -1.7188 Q-9.3516 -0.8125 -7.8984 -0.8125 Q-6.4766 -0.8125 -5.5625 -1.7109 Q-4.6484 -2.6094 -4.6484 -3.9062 Q-4.6484 -5.25 -5.5859 -6.1797 Q-6.5234 -7.1094 -7.9297 -7.1094 Q-9.3359 -7.1094 -10.2656 -6.2031 Q-11.1953 -5.2969 -11.1953 -4.0469 ZM-11.9766 5.2188 Q-11.9766 6.2656 -11.4844 7.25 Q-10.9922 8.2344 -10.0078 8.7734 Q-9.0234 9.3125 -7.8828 9.3125 Q-6.1172 9.3125 -4.9688 8.1797 Q-3.8203 7.0469 -3.8203 5.2969 Q-3.8203 3.5156 -5 2.3594 Q-6.1797 1.2031 -7.9609 1.2031 Q-9.6953 1.2031 -10.8359 2.3516 Q-11.9766 3.5 -11.9766 5.2188 Z"
         id="path20520" />
    </g>
    <g
       transform="translate(138.4,55)"
       style="font-size:28px; fill:rgb(38,38,38); text-rendering:geometricPrecision; image-rendering:optimizeQuality; color-rendering:optimizeQuality; font-family:'SansSerif'; stroke:rgb(38,38,38); color-interpolation:linearRGB;"
       id="g20526">
      <path
         style="stroke:none;"
         d="M-5.5625 11 L-8.0312 11 L-8.0312 -4.6875 Q-8.9219 -3.8281 -10.3594 -2.9844 Q-11.7969 -2.1406 -12.9531 -1.7188 L-12.9531 -4.0938 Q-10.8906 -5.0625 -9.3438 -6.4453 Q-7.7969 -7.8281 -7.1562 -9.125 L-5.5625 -9.125 L-5.5625 11 Z"
         id="path20524" />
    </g>
    <g
       transform="translate(72,399) rotate(-90)"
       style="font-size:30.8px; fill:rgb(38,38,38); text-rendering:geometricPrecision; image-rendering:optimizeQuality; color-rendering:optimizeQuality; font-family:'SansSerif'; stroke:rgb(38,38,38); color-interpolation:linearRGB;"
       id="g20530">
      <path
         style="stroke:none;"
         d="M2.0469 0 L2.0469 -16.0781 L4.5 -16.0781 L4.5 -13.7969 Q6.2656 -16.4375 9.6094 -16.4375 Q11.0625 -16.4375 12.2812 -15.9141 Q13.5 -15.3906 14.1094 -14.5469 Q14.7188 -13.7031 14.9531 -12.5312 Q15.1094 -11.7812 15.1094 -9.8906 L15.1094 0 L12.375 0 L12.375 -9.7812 Q12.375 -11.4375 12.0625 -12.2656 Q11.75 -13.0938 10.9375 -13.5859 Q10.125 -14.0781 9.0312 -14.0781 Q7.2969 -14.0781 6.0312 -12.9766 Q4.7656 -11.875 4.7656 -8.7812 L4.7656 0 L2.0469 0 Z"
         id="path20528" />
    </g>
    <g
       transform="translate(87,381) rotate(-90)"
       style="font-size:24.64px; fill:rgb(38,38,38); text-rendering:geometricPrecision; image-rendering:optimizeQuality; color-rendering:optimizeQuality; font-family:'SansSerif'; stroke:rgb(38,38,38); color-interpolation:linearRGB;"
       id="g20534">
      <path
         style="stroke:none;"
         d="M10.1094 -4.75 L12.2656 -4.4688 Q11.9219 -2.2344 10.4609 -0.9688 Q9 0.2969 6.875 0.2969 Q4.2188 0.2969 2.6016 -1.4453 Q0.9844 -3.1875 0.9844 -6.4375 Q0.9844 -8.5312 1.6797 -10.1094 Q2.375 -11.6875 3.7969 -12.4688 Q5.2188 -13.25 6.8906 -13.25 Q9 -13.25 10.3438 -12.1875 Q11.6875 -11.125 12.0625 -9.1562 L9.9219 -8.8281 Q9.625 -10.125 8.8438 -10.7891 Q8.0625 -11.4531 6.9688 -11.4531 Q5.3125 -11.4531 4.2734 -10.2578 Q3.2344 -9.0625 3.2344 -6.5 Q3.2344 -3.875 4.2344 -2.6953 Q5.2344 -1.5156 6.8438 -1.5156 Q8.1406 -1.5156 9.0078 -2.3047 Q9.875 -3.0938 10.1094 -4.75 ZM13.0781 -3.875 L15.25 -4.2188 Q15.4375 -2.9062 16.2734 -2.2109 Q17.1094 -1.5156 18.6094 -1.5156 Q20.125 -1.5156 20.8594 -2.1328 Q21.5938 -2.75 21.5938 -3.5781 Q21.5938 -4.3281 20.9375 -4.75 Q20.4844 -5.0469 18.7031 -5.5 Q16.2812 -6.1094 15.3438 -6.5547 Q14.4062 -7 13.9297 -7.7812 Q13.4531 -8.5625 13.4531 -9.5156 Q13.4531 -10.3906 13.8438 -11.125 Q14.2344 -11.8594 14.9219 -12.3594 Q15.4375 -12.7344 16.3203 -12.9922 Q17.2031 -13.25 18.2188 -13.25 Q19.75 -13.25 20.8984 -12.8125 Q22.0469 -12.375 22.6016 -11.625 Q23.1562 -10.875 23.3594 -9.625 L21.2188 -9.3281 Q21.0625 -10.3281 20.3594 -10.8906 Q19.6562 -11.4531 18.375 -11.4531 Q16.8594 -11.4531 16.2188 -10.9531 Q15.5781 -10.4531 15.5781 -9.7812 Q15.5781 -9.3438 15.8438 -9.0156 Q16.1094 -8.6562 16.6875 -8.4219 Q17.0156 -8.2969 18.625 -7.8594 Q20.9531 -7.2344 21.875 -6.8438 Q22.7969 -6.4531 23.3203 -5.6953 Q23.8438 -4.9375 23.8438 -3.8125 Q23.8438 -2.7031 23.2031 -1.7344 Q22.5625 -0.7656 21.3594 -0.2344 Q20.1562 0.2969 18.625 0.2969 Q16.0938 0.2969 14.7734 -0.7578 Q13.4531 -1.8125 13.0781 -3.875 Z"
         id="path20532" />
    </g>
    <g
       transform="translate(72,356) rotate(-90)"
       style="font-size:30.8px; fill:rgb(38,38,38); text-rendering:geometricPrecision; image-rendering:optimizeQuality; color-rendering:optimizeQuality; font-family:'SansSerif'; stroke:rgb(38,38,38); color-interpolation:linearRGB;"
       id="g20538">
      <path
         style="stroke:none;"
         d="M0 0.375 L6.4375 -22.5625 L8.6094 -22.5625 L2.1875 0.375 L0 0.375 ZM19.1509 0 L19.1509 -16.0781 L21.604 -16.0781 L21.604 -13.7969 Q23.3697 -16.4375 26.7134 -16.4375 Q28.1665 -16.4375 29.3853 -15.9141 Q30.604 -15.3906 31.2134 -14.5469 Q31.8228 -13.7031 32.0572 -12.5312 Q32.2134 -11.7812 32.2134 -9.8906 L32.2134 0 L29.479 0 L29.479 -9.7812 Q29.479 -11.4375 29.1665 -12.2656 Q28.854 -13.0938 28.0415 -13.5859 Q27.229 -14.0781 26.1353 -14.0781 Q24.4009 -14.0781 23.1353 -12.9766 Q21.8697 -11.875 21.8697 -8.7812 L21.8697 0 L19.1509 0 Z"
         id="path20536" />
    </g>
    <g
       transform="translate(87,321) rotate(-90)"
       style="font-size:24.64px; fill:rgb(38,38,38); text-rendering:geometricPrecision; image-rendering:optimizeQuality; color-rendering:optimizeQuality; font-family:'SansSerif'; stroke:rgb(38,38,38); color-interpolation:linearRGB;"
       id="g20542">
      <path
         style="stroke:none;"
         d="M10.1094 -1.5938 Q8.8906 -0.5625 7.7578 -0.1328 Q6.625 0.2969 5.3281 0.2969 Q3.2031 0.2969 2.0547 -0.75 Q0.9062 -1.7969 0.9062 -3.4219 Q0.9062 -4.375 1.3359 -5.1562 Q1.7656 -5.9375 2.4688 -6.4141 Q3.1719 -6.8906 4.0469 -7.1406 Q4.7031 -7.3125 6 -7.4688 Q8.6719 -7.7812 9.9219 -8.2344 Q9.9375 -8.6719 9.9375 -8.7969 Q9.9375 -10.1406 9.3125 -10.6875 Q8.4688 -11.4375 6.8125 -11.4375 Q5.2656 -11.4375 4.5234 -10.8984 Q3.7812 -10.3594 3.4375 -8.9688 L1.2812 -9.2656 Q1.5781 -10.6406 2.25 -11.4922 Q2.9219 -12.3438 4.1875 -12.7969 Q5.4531 -13.25 7.125 -13.25 Q8.7969 -13.25 9.8281 -12.8594 Q10.8594 -12.4688 11.3516 -11.8828 Q11.8438 -11.2969 12.0312 -10.3906 Q12.1406 -9.8281 12.1406 -8.3594 L12.1406 -5.4375 Q12.1406 -2.375 12.2812 -1.5625 Q12.4219 -0.75 12.8438 0 L10.5469 0 Q10.2031 -0.6875 10.1094 -1.5938 ZM9.9219 -6.5 Q8.7344 -6.0156 6.3281 -5.6719 Q4.9844 -5.4844 4.4219 -5.2422 Q3.8594 -5 3.5547 -4.5234 Q3.25 -4.0469 3.25 -3.4844 Q3.25 -2.5938 3.9141 -2.0078 Q4.5781 -1.4219 5.8594 -1.4219 Q7.125 -1.4219 8.1172 -1.9844 Q9.1094 -2.5469 9.5781 -3.5 Q9.9219 -4.25 9.9219 -5.7031 L9.9219 -6.5 Z"
         id="path20540" />
    </g>
    <g
       style="stroke-linecap:butt;fill:blue;text-rendering:geometricPrecision;image-rendering:optimizeQuality;color-rendering:optimizeQuality;stroke-linejoin:round;stroke:blue;color-interpolation:linearRGB;stroke-width:3;stroke-miterlimit:10;stroke-dasharray:none"
       id="g20546">
      <path
         d="M147.8952 652 L150.7534 652 L154.1109 652 L157.4684 652 L160.826 652 L164.1835 652 L167.541 652 L170.8986 652 L174.2561 652 L177.6136 652 L180.9712 652 L184.3287 652 L187.6863 652 L191.0438 652 L194.4013 652 L197.7589 652 L201.1163 652 L204.4739 652 L207.8315 652 L211.189 652 L214.5465 652 L217.904 652 L221.2616 652 L224.6191 652 L227.9766 652 L231.3342 652 L234.6917 614.3741 L238.0492 611.0083 L241.4068 607.3027 L244.7643 603.2684 L248.1218 598.9229 L251.4794 594.2888 L254.8369 589.3925 L258.1944 584.2636 L261.552 578.9329 L264.9095 573.4318 L268.267 567.7905 L271.6245 562.0381 L274.9821 556.2011 L278.3396 550.3035 L281.6972 544.3664 L285.0547 538.4079 L288.4122 532.4436 L291.7697 526.4865 L295.1273 520.5474 L298.4848 514.6352 L301.8423 508.7573 L305.1999 502.9199 L308.5574 497.1279 L311.9149 491.3858 L315.2725 485.6973 L318.63 480.0657 L321.9875 474.4939 L325.3451 468.9846 L328.7026 463.5403 L332.0602 458.1636 L335.4177 452.8566 L338.7752 447.6215 L342.1328 442.4606 L345.4903 437.3759 L348.8478 432.3694 L352.2054 427.4433 L355.5629 422.5995 L358.9204 417.8398 L362.2779 413.1663 L365.6355 408.5808 L368.993 404.0852 L372.3506 399.6812 L375.7081 395.3705 L379.0656 391.155 L382.4231 387.0363 L385.7807 383.0161 L389.1382 379.0959 L392.4957 375.2774 L395.8533 371.562 L399.2108 367.9513 L402.5683 364.4466 L405.9259 361.0495 L409.2834 357.7612 L412.6409 352.4681 L415.9985 345.8171 L419.356 338.9453 L422.7135 331.8694 L426.0711 324.611 L429.4286 317.1967 L432.7861 309.656 L436.1436 302.0204 L439.5012 294.3222 L442.8587 286.593 L446.2162 278.8634 L449.5738 271.1615 L452.9313 263.5131 L456.2888 255.941 L459.6464 248.465 L463.0039 241.1024 L466.3615 233.8674 L469.719 226.7722 L473.0765 219.8267 L476.4341 213.0394 L479.7916 206.4171 L483.1491 199.9655 L486.5067 193.6895 L489.8642 187.5932 L493.2217 181.6802 L496.5793 175.9537 L499.9368 170.4165 L503.2943 165.0713 L506.6519 159.9203 L510.0094 154.9659 L513.3669 150.21 L516.7244 145.6548 L520.082 141.302 L523.4395 137.1534 L526.7971 133.2108 L530.1546 129.4756 L533.5121 125.9494 L536.8696 122.6336 L540.2272 119.5295 L543.5847 116.6385 L546.9423 113.9616 L550.2997 111.4998 L553.6573 109.2543 L557.0148 107.2259 L560.3724 105.4153 L563.7299 103.8234 L567.0875 102.4508 L570.4449 101.2979 L573.8025 100.3654 L577.16 99.6534 L580.5176 99.1625 L583.8751 98.8926 L587.2326 98.844 L590.5901 99.0166 L593.9477 99.4104 L597.3052 100.0253 L600.6628 100.8609 L604.0203 101.917 L607.3778 103.1931 L610.7354 104.6887 L614.0929 106.4032 L617.4504 108.336 L620.808 110.4862 L624.1655 112.853 L627.523 115.4355 L630.8806 118.2326 L634.2381 121.2432 L637.5956 124.4661 L640.9531 127.9 L644.3107 131.5434 L647.6682 135.3951 L651.0258 139.4534 L654.3833 143.7166 L657.7408 148.1832 L661.0983 152.851 L664.4559 157.7184 L667.8134 162.7833 L671.171 168.0435 L674.5285 173.4966 L677.886 179.1402 L681.2435 184.9716 L684.6011 190.9877 L687.9586 197.1852 L691.3162 203.5602 L694.6736 210.1081 L698.0312 216.8237 L701.3887 223.7006 L704.7463 230.7311 L708.1038 237.906 L711.4614 245.2142 L714.8188 252.6423 L718.1764 260.1744 L721.5339 267.792 L724.8915 275.4734 L728.249 283.1941 L731.6065 290.9271 L734.9641 298.6428 L738.3216 306.3098 L741.6791 313.8962 L745.0367 321.3699 L748.3942 328.7002 L751.7517 335.8593 L755.1093 342.8232 L758.4668 349.5729 L761.8243 356.0953 L765.1819 359.5908 L768.5394 362.9402 L771.8969 366.3978 L775.2545 369.9621 L778.612 373.6316 L781.9695 377.405 L785.3271 381.2807 L788.6846 385.2572 L792.0421 389.3328 L795.3997 393.506 L798.7572 397.775 L802.1147 402.1382 L805.4723 406.5938 L808.8298 411.14 L812.1873 415.7751 L815.5449 420.4971 L818.9024 425.3041 L822.2599 430.1943 L825.6174 435.1657 L828.975 440.2163 L832.3325 445.344 L835.6901 450.5467 L839.0476 455.8224 L842.4051 461.1688 L845.7626 466.5836 L849.1202 472.0646 L852.4777 477.6093 L855.8353 483.215 L859.1928 488.8789 L862.5503 494.5978 L865.9078 500.3684 L869.2654 506.1864 L872.6229 512.0472 L875.9805 517.9451 L879.338 523.8734 L882.6955 529.8239 L886.053 535.7864 L889.4106 541.7492 L892.7681 547.6978 L896.1257 553.6152 L899.4832 559.4816 L902.8407 565.2744 L906.1982 570.9679 L909.5558 576.5343 L912.9133 581.9437 L916.2708 587.1652 L919.6284 592.1674 L922.9859 596.9202 L926.3434 601.3956 L929.701 605.5692 L933.0585 609.421 L936.416 612.9371 L939.7736 652 L943.1311 652 L946.4886 652 L949.8462 652 L953.2037 652 L956.5612 652 L959.9188 652 L963.2763 652 L966.6339 652 L969.9913 652 L973.3489 652 L976.7064 652 L980.064 652 L983.4215 652 L986.7791 652 L990.1366 652 L993.4941 652 L996.8516 652 L1000.2092 652 L1003.5667 652 L1006.9242 652 L1010.2817 652 L1013.6393 652 L1016.9968 652 L1020.3544 652 L1023.7119 652 L1027.0695 652 L1027.1047 652"
         style="fill:none;fill-rule:evenodd;stroke-width:3;stroke-miterlimit:10;stroke-dasharray:none"
         id="path20544" />
    </g>
    <rect
       style="font-variation-settings:normal;opacity:1;vector-effect:none;fill:#ff0000;fill-opacity:0.09;fill-rule:evenodd;stroke:none;stroke-width:4;stroke-linecap:round;stroke-linejoin:round;stroke-miterlimit:4;stroke-dasharray:none;stroke-dashoffset:0;stroke-opacity:1;stop-color:#000000;stop-opacity:1"
       id="rect21300"
       width="177.79997"
       height="597"
       x="409.70001"
       y="55" />
    <rect
       style="font-style:normal;font-weight:normal;font-size:12px;font-family:Dialog;font-variation-settings:normal;opacity:1;color-interpolation:auto;vector-effect:none;fill:#ff0000;fill-opacity:0.09;fill-rule:evenodd;stroke:none;stroke-width:4;stroke-linecap:round;stroke-linejoin:round;stroke-miterlimit:4;stroke-dasharray:none;stroke-dashoffset:0;stroke-opacity:1;color-rendering:auto;image-rendering:auto;shape-rendering:auto;text-rendering:auto;stop-color:#000000;stop-opacity:1"
       id="rect21300-4"
       width="175.70605"
       height="596.92181"
       x="587.59399"
       y="55" />
    <path
       d="m 602.51911,110.11739 h 36.23571 -18.11634 v -18.11926 36.23852 -18.11926 l 18.11634,-18.11926 -36.23571,36.23852 18.11937,-18.11926 -18.11937,-18.11926 36.23571,36.23852"
       style="fill:none;stroke:#ff9900;stroke-width:2.912;stroke-linecap:butt;stroke-linejoin:miter;stroke-miterlimit:2.5;stroke-dasharray:none;stroke-opacity:1"
       id="path16711" />
    <path
       d="m 701.02808,260.43831 h 36.23571 -18.11634 v -18.11926 36.23852 -18.11926 l 18.11634,-18.11926 -36.23571,36.23852 18.11937,-18.11926 -18.11937,-18.11926 36.23571,36.23852"
       style="font-style:normal;font-weight:normal;font-size:12px;font-family:Dialog;color-interpolation:auto;fill:none;fill-opacity:1;stroke:#ff9900;stroke-width:2.912;stroke-linecap:butt;stroke-linejoin:miter;stroke-miterlimit:2.5;stroke-dasharray:none;stroke-dashoffset:0;stroke-opacity:1;color-rendering:auto;image-rendering:auto;shape-rendering:auto;text-rendering:auto"
       id="path16711-1" />
    <path
       d="m 831.94218,473.89393 h 36.23571 -18.11634 v -18.11926 36.23852 -18.11926 l 18.11634,-18.11926 -36.23571,36.23852 18.11937,-18.11926 -18.11937,-18.11926 36.23571,36.23852"
       style="font-style:normal;font-weight:normal;font-size:12px;font-family:Dialog;color-interpolation:auto;fill:none;fill-opacity:1;stroke:#ff9900;stroke-width:2.912;stroke-linecap:butt;stroke-linejoin:miter;stroke-miterlimit:2.5;stroke-dasharray:none;stroke-dashoffset:0;stroke-opacity:1;color-rendering:auto;image-rendering:auto;shape-rendering:auto;text-rendering:auto"
       id="path16711-4" />
    <path
       d="m 921.16169,616.06219 h 36.2357 -18.11634 v -18.11927 36.23853 -18.11926 l 18.11634,-18.11927 -36.2357,36.23853 18.11936,-18.11926 -18.11936,-18.11927 36.2357,36.23853"
       style="font-style:normal;font-weight:normal;font-size:12px;font-family:Dialog;color-interpolation:auto;fill:none;fill-opacity:1;stroke:#ff9900;stroke-width:2.912;stroke-linecap:butt;stroke-linejoin:miter;stroke-miterlimit:2.5;stroke-dasharray:none;stroke-dashoffset:0;stroke-opacity:1;color-rendering:auto;image-rendering:auto;shape-rendering:auto;text-rendering:auto"
       id="path16711-93" />
    <path
       d="m 744.72267,356.91197 h 36.23571 -18.11634 v -18.11926 36.23852 -18.11926 l 18.11634,-18.11926 -36.23571,36.23852 18.11937,-18.11926 -18.11937,-18.11926 36.23571,36.23852"
       style="font-style:normal;font-weight:normal;font-size:12px;font-family:Dialog;color-interpolation:auto;fill:none;fill-opacity:1;stroke:#ff9900;stroke-width:2.912;stroke-linecap:butt;stroke-linejoin:miter;stroke-miterlimit:2.5;stroke-dasharray:none;stroke-dashoffset:0;stroke-opacity:1;color-rendering:auto;image-rendering:auto;shape-rendering:auto;text-rendering:auto"
       id="path16711-9" />
    <path
       d="m 512.2046,167.48638 -0.23264,-2.54255 -0.69382,-2.31401 -1.15504,-2.314 -1.6203,-1.85283 -1.96723,-1.62024 -2.19983,-1.15495 -2.42844,-0.81214 -2.54678,-0.22864 -2.4284,0.22864 -2.4284,0.81214 -2.19987,1.15495 -1.96723,1.62024 -1.6203,1.85283 -1.15501,2.314 -0.81221,2.31401 -0.22866,2.54255 0.22866,2.54664 0.81221,2.42827 1.15501,2.19974 1.6203,1.96709 1.96723,1.50187 2.19987,1.27331 2.4284,0.69381 2.4284,0.23262 2.54678,-0.23262 2.42844,-0.69381 2.19983,-1.27331 1.96723,-1.50187 1.6203,-1.96709 1.15504,-2.19974 0.69382,-2.42827 0.23264,-2.54664"
       style="fill:none;stroke:#002eff;stroke-width:3.678;stroke-linecap:butt;stroke-linejoin:miter;stroke-miterlimit:2.5;stroke-dasharray:none;stroke-opacity:1;fill-opacity:0.09"
       id="path53863" />
    <path
       d="m 690.40277,173.86071 -0.23264,-2.54255 -0.69382,-2.31401 -1.15504,-2.314 -1.6203,-1.85283 -1.96723,-1.62024 -2.19983,-1.15495 -2.42844,-0.81214 -2.54678,-0.22864 -2.4284,0.22864 -2.4284,0.81214 -2.19987,1.15495 -1.96723,1.62024 -1.6203,1.85283 -1.15501,2.314 -0.81221,2.31401 -0.22866,2.54255 0.22866,2.54664 0.81221,2.42827 1.15501,2.19974 1.6203,1.96709 1.96723,1.50187 2.19987,1.27331 2.4284,0.69381 2.4284,0.23262 2.54678,-0.23262 2.42844,-0.69381 2.19983,-1.27331 1.96723,-1.50187 1.6203,-1.96709 1.15504,-2.19974 0.69382,-2.42827 0.23264,-2.54664"
       style="font-style:normal;font-weight:normal;font-size:12px;font-family:Dialog;color-interpolation:auto;fill:none;fill-opacity:0.09;stroke:#002eff;stroke-width:3.678;stroke-linecap:butt;stroke-linejoin:miter;stroke-miterlimit:2.5;stroke-dasharray:none;stroke-dashoffset:0;stroke-opacity:1;color-rendering:auto;image-rendering:auto;shape-rendering:auto;text-rendering:auto"
       id="path53863-2" />
    <text
       xml:space="preserve"
       style="font-style:normal;font-weight:normal;font-size:40px;line-height:1.25;font-family:sans-serif;letter-spacing:0px;word-spacing:0px;fill:#000000;fill-opacity:1;stroke:none"
       x="652"
       y="124"
       id="text21412"><tspan
         sodipodi:role="line"
         id="tspan21410"
         x="652"
         y="124"
         style="font-style:normal;font-variant:normal;font-weight:normal;font-stretch:normal;font-family:Arial;-inkscape-font-specification:Arial">-1 h</tspan></text>
    <text
       xml:space="preserve"
       style="font-style:normal;font-weight:normal;font-size:40px;line-height:1.25;font-family:sans-serif;letter-spacing:0px;word-spacing:0px;color-interpolation:auto;fill:#000000;fill-opacity:1;stroke:none;stroke-width:1;stroke-linecap:square;stroke-linejoin:miter;stroke-miterlimit:10;stroke-dasharray:none;stroke-dashoffset:0;stroke-opacity:1;color-rendering:auto;image-rendering:auto;shape-rendering:auto;text-rendering:auto"
       x="749.10156"
       y="271.19531"
       id="text21412-6"><tspan
         sodipodi:role="line"
         id="tspan21410-1"
         x="749.10156"
         y="271.19531"
         style="font-style:normal;font-variant:normal;font-weight:normal;font-stretch:normal;font-family:Arial;-inkscape-font-specification:Arial">-10 min</tspan></text>
    <text
       xml:space="preserve"
       style="font-style:normal;font-weight:normal;font-size:40px;line-height:1.25;font-family:sans-serif;letter-spacing:0px;word-spacing:0px;color-interpolation:auto;fill:#000000;fill-opacity:1;stroke:none;stroke-width:1;stroke-linecap:square;stroke-linejoin:miter;stroke-miterlimit:10;stroke-dasharray:none;stroke-dashoffset:0;stroke-opacity:1;color-rendering:auto;image-rendering:auto;shape-rendering:auto;text-rendering:auto"
       x="793.10156"
       y="365.19531"
       id="text21412-0"><tspan
         sodipodi:role="line"
         id="tspan21410-10"
         x="793.10156"
         y="365.19531"
         style="font-style:normal;font-variant:normal;font-weight:normal;font-stretch:normal;font-family:Ar;-inkscape-font-specification:Ar">-5 min</tspan></text>
    <text
       xml:space="preserve"
       style="font-style:normal;font-weight:normal;font-size:40px;line-height:1.25;font-family:sans-serif;letter-spacing:0px;word-spacing:0px;color-interpolation:auto;fill:#000000;fill-opacity:1;stroke:none;stroke-width:1;stroke-linecap:square;stroke-linejoin:miter;stroke-miterlimit:10;stroke-dasharray:none;stroke-dashoffset:0;stroke-opacity:1;color-rendering:auto;image-rendering:auto;shape-rendering:auto;text-rendering:auto"
       x="886.10156"
       y="483.19531"
       id="text21412-1"><tspan
         sodipodi:role="line"
         id="tspan21410-9"
         x="886.10156"
         y="483.19531"
         style="font-style:normal;font-variant:normal;font-weight:normal;font-stretch:normal;font-family:Arial;-inkscape-font-specification:Arial">0 min</tspan></text>
    <text
       xml:space="preserve"
       style="font-style:normal;font-weight:normal;font-size:40px;line-height:1.25;font-family:sans-serif;letter-spacing:0px;word-spacing:0px;color-interpolation:auto;fill:#000000;fill-opacity:1;stroke:none;stroke-width:1;stroke-linecap:square;stroke-linejoin:miter;stroke-miterlimit:10;stroke-dasharray:none;stroke-dashoffset:0;stroke-opacity:1;color-rendering:auto;image-rendering:auto;shape-rendering:auto;text-rendering:auto"
       x="972.10156"
       y="625.19531"
       id="text21412-3"><tspan
         sodipodi:role="line"
         id="tspan21410-0"
         x="972.10156"
         y="625.19531"
         style="font-style:normal;font-variant:normal;font-weight:normal;font-stretch:normal;font-family:Arial;-inkscape-font-specification:Arial">+5 min</tspan></text>
  </g>
</svg>
